<?xml version="1.0" encoding="utf-8"?>
<!-- Generator: Adobe Illustrator 24.1.0, SVG Export Plug-In . SVG Version: 6.00 Build 0)  -->
<svg version="1.1" id="Layer_1" xmlns="http://www.w3.org/2000/svg" xmlns:xlink="http://www.w3.org/1999/xlink" x="0px" y="0px"
	 viewBox="0 0 249.2 249.2" style="enable-background:new 0 0 249.2 249.2;" xml:space="preserve">
<style type="text/css">
	.st0{fill:#1D1D1B;}
</style>
<path class="st0" d="M218.4,211.7c-49.9,49.9-131.1,49.9-181,0c-49.9-49.9-49.9-131.1,0-181C50.6,17.5,66.7,7.5,85.3,0.9
	c5.8-2,12.3-0.6,16.6,3.8c4.4,4.4,5.9,10.8,3.8,16.6c-12.5,35.4-4,73.7,22.2,99.9c26.2,26.2,64.5,34.7,99.9,22.2
	c5.8-2.1,12.3-0.6,16.6,3.8c4.4,4.3,5.8,10.8,3.8,16.6C241.7,182.4,231.6,198.5,218.4,211.7z M60.1,53.3
	c-37.4,37.4-37.4,98.4,0,135.8c40,40,108.1,36.4,143-8.2c-36,2.2-71.4-10.7-97.8-37.1C78.9,117.5,66,82.1,68.2,46.1
	C65.4,48.4,62.6,50.8,60.1,53.3z"/>
</svg>
