<?xml version="1.0" encoding="utf-8"?>
<!-- Generator: Adobe Illustrator 24.1.0, SVG Export Plug-In . SVG Version: 6.00 Build 0)  -->
<svg version="1.1" id="Layer_1" xmlns="http://www.w3.org/2000/svg" xmlns:xlink="http://www.w3.org/1999/xlink" x="0px" y="0px"
	 viewBox="0 0 416 416" style="enable-background:new 0 0 416 416;" xml:space="preserve">
<style type="text/css">
	.st0{fill:#1D1D1B;}
</style>
<g>
	<g>
		<path class="st0" d="M208,64c8.8,0,16-7.2,16-16V16c0-8.8-7.2-16-16-16s-16,7.2-16,16v32C192,56.8,199.2,64,208,64z M332.4,106.2
			L355,83.6c6.2-6.2,6.2-16.4,0-22.6s-16.4-6.2-22.6,0l-22.6,22.6c-6.2,6.2-6.2,16.4,0,22.6S326.2,112.4,332.4,106.2z M16,224h32
			c8.8,0,16-7.2,16-16s-7.2-16-16-16H16c-8.8,0-16,7.2-16,16S7.2,224,16,224z M352,208c0,8.8,7.2,16,16,16h32c8.8,0,16-7.2,16-16
			s-7.2-16-16-16h-32C359.2,192,352,199.2,352,208z M83.5,106.2c6.3,6.2,16.4,6.2,22.6,0c6.3-6.2,6.3-16.4,0-22.6L83.5,61
			c-6.2-6.2-16.4-6.2-22.6,0s-6.2,16.4,0,22.6L83.5,106.2z M97.6,224h32c-1.1-5.2-1.6-10.5-1.6-16c0-44.2,35.8-80,80-80
			s80,35.8,80,80c0,5.5-0.6,10.8-1.6,16h32c0.8-5.3,1.6-10.5,1.6-16c0-61.8-50.2-112-112-112S96,146.3,96,208
			C96,213.5,96.9,218.7,97.6,224z M400,256H16c-8.8,0-16,7.2-16,16s7.2,16,16,16h384c8.8,0,16-7.2,16-16S408.8,256,400,256z
			 M400,320H16c-8.8,0-16,7.2-16,16s7.2,16,16,16h384c8.8,0,16-7.2,16-16S408.8,320,400,320z M400,384H16c-8.8,0-16,7.2-16,16
			s7.2,16,16,16h384c8.8,0,16-7.2,16-16S408.8,384,400,384z"/>
	</g>
</g>
</svg>
