<?xml version="1.0" encoding="utf-8"?>
<!-- Generator: Adobe Illustrator 24.1.0, SVG Export Plug-In . SVG Version: 6.00 Build 0)  -->
<svg version="1.1" id="Layer_1" xmlns="http://www.w3.org/2000/svg" xmlns:xlink="http://www.w3.org/1999/xlink" x="0px" y="0px"
	 viewBox="0 0 416 382" style="enable-background:new 0 0 416 382;" xml:space="preserve">
<style type="text/css">
	.st0{fill:#1D1D1B;}
</style>
<g>
	<g>
		<path class="st0" d="M16,254h384c8.8,0,16-7.2,16-16s-7.2-16-16-16H16c-8.8,0-16,7.2-16,16S7.2,254,16,254z M400,286H16
			c-8.8,0-16,7.2-16,16s7.2,16,16,16h384c8.8,0,16-7.2,16-16S408.8,286,400,286z M400,350H16c-8.8,0-16,7.2-16,16s7.2,16,16,16h384
			c8.8,0,16-7.2,16-16S408.8,350,400,350z M157,190c-0.3-0.3-0.8-0.5-1.1-0.9c-37.4-37.4-37.4-98.3,0-135.8c2.6-2.5,5.3-5,8.1-7.2
			c-2.3,36,10.7,71.4,37.1,97.7c26.4,26.4,61.8,39.3,97.7,37.1c-2.7,3.4-5.9,6.1-8.9,9.1h41.5c5-8,9.2-16.8,12.6-26.1
			c2-5.9,0.5-12.3-3.8-16.7s-10.8-5.9-16.6-3.8c-35.4,12.5-73.6,4-99.9-22.2s-34.8-64.5-22.3-99.9c2.1-5.8,0.6-12.3-3.8-16.6
			c-4.3-4.4-10.8-5.8-16.6-3.8c-18.5,6.5-34.6,16.6-47.8,29.8C90,73.9,84.3,140.5,115.9,190H157z"/>
	</g>
</g>
</svg>
