<?xml version="1.0" encoding="utf-8"?>
<!-- Generator: Adobe Illustrator 24.1.0, SVG Export Plug-In . SVG Version: 6.00 Build 0)  -->
<svg version="1.1" id="Layer_1" xmlns="http://www.w3.org/2000/svg" xmlns:xlink="http://www.w3.org/1999/xlink" x="0px" y="0px"
	 viewBox="0 0 416 416" style="enable-background:new 0 0 416 416;" xml:space="preserve">
<style type="text/css">
	.st0{fill-rule:evenodd;clip-rule:evenodd;fill:#1D1D1B;}
</style>
<g>
	<g>
		<path class="st0" d="M208,96c-61.8,0-112,50.2-112,112s50.2,112,112,112s112-50.2,112-112S269.8,96,208,96z M208,288
			c-44.2,0-80-35.8-80-80s35.8-80,80-80s80,35.8,80,80S252.2,288,208,288z M208,64c8.8,0,16-7.2,16-16V16c0-8.8-7.2-16-16-16
			s-16,7.2-16,16v32C192,56.8,199.2,64,208,64z M208,352c-8.8,0-16,7.2-16,16v32c0,8.8,7.2,16,16,16s16-7.2,16-16v-32
			C224,359.2,216.8,352,208,352z M332.4,106.2l22.6-22.6c6.2-6.2,6.2-16.4,0-22.6s-16.4-6.2-22.6,0l-22.6,22.6
			c-6.2,6.2-6.2,16.4,0,22.6C316.1,112.4,326.2,112.4,332.4,106.2z M83.6,309.8l-22.6,22.6c-6.2,6.2-6.2,16.4,0,22.6
			s16.4,6.2,22.6,0l22.6-22.6c6.2-6.3,6.2-16.4,0-22.6C99.9,303.6,89.8,303.6,83.6,309.8z M64,208c0-8.8-7.2-16-16-16H16
			c-8.8,0-16,7.2-16,16s7.2,16,16,16h32C56.8,224,64,216.8,64,208z M400,192h-32c-8.8,0-16,7.2-16,16s7.2,16,16,16h32
			c8.8,0,16-7.2,16-16S408.8,192,400,192z M83.5,106.2c6.3,6.2,16.4,6.2,22.6,0c6.3-6.2,6.3-16.4,0-22.6L83.5,60.9
			c-6.2-6.2-16.4-6.2-22.6,0c-6.2,6.2-6.2,16.4,0,22.6L83.5,106.2z M332.5,309.8c-6.3-6.2-16.4-6.2-22.6,0c-6.3,6.2-6.3,16.4,0,22.6
			l22.6,22.6c6.2,6.2,16.4,6.2,22.6,0s6.2-16.4,0-22.6L332.5,309.8z"/>
	</g>
</g>
</svg>
