<?xml version="1.0" encoding="utf-8"?>
<!-- Generator: Adobe Illustrator 24.1.0, SVG Export Plug-In . SVG Version: 6.00 Build 0)  -->
<svg version="1.1" id="Layer_1" xmlns="http://www.w3.org/2000/svg" xmlns:xlink="http://www.w3.org/1999/xlink" x="0px" y="0px"
	 viewBox="0 0 303.5 320" style="enable-background:new 0 0 303.5 320;" xml:space="preserve">
<style type="text/css">
	.st0{fill-rule:evenodd;clip-rule:evenodd;fill:#1D1D1B;}
</style>
<g>
	<g>
		<path class="st0" d="M73.4,192c7.4-36.5,39.7-64,78.4-64c38.7,0,71,27.5,78.4,64h32c-7.8-54.1-54.1-96-110.4-96
			c-56.3,0-102.5,41.9-110.4,96H73.4z M151.8,64c8.8,0,16-7.2,16-16V16c0-8.8-7.2-16-16-16c-8.8,0-16,7.2-16,16v32
			C135.8,56.8,142.9,64,151.8,64z M298.8,60.9c-6.2-6.2-16.4-6.2-22.6,0l-22.6,22.6c-6.2,6.2-6.2,16.4,0,22.6
			c6.3,6.2,16.4,6.2,22.6,0l22.6-22.6C305.1,77.3,305.1,67.2,298.8,60.9z M49.9,83.5L27.3,60.9c-6.2-6.2-16.4-6.2-22.6,0
			c-6.2,6.2-6.2,16.4,0,22.6l22.6,22.6c6.3,6.2,16.4,6.2,22.6,0C56.2,99.9,56.2,89.8,49.9,83.5z M247.8,224h-192
			c-8.8,0-16,7.2-16,16s7.2,16,16,16h192c8.8,0,16-7.2,16-16S256.6,224,247.8,224z M215.8,288h-128c-8.8,0-16,7.2-16,16
			s7.2,16,16,16h128c8.8,0,16-7.2,16-16S224.6,288,215.8,288z"/>
	</g>
</g>
</svg>
